<?xml version="1.0" standalone="no"?><!DOCTYPE svg PUBLIC "-//W3C//DTD SVG 1.1//EN" "http://www.w3.org/Graphics/SVG/1.1/DTD/svg11.dtd"><svg t="1649606172453" class="icon" viewBox="0 0 1070 1024" version="1.1" xmlns="http://www.w3.org/2000/svg" p-id="2018" xmlns:xlink="http://www.w3.org/1999/xlink" width="208.984375" height="200"><defs><style type="text/css">@font-face { font-family: feedback-iconfont; src: url("//at.alicdn.com/t/font_1031158_u69w8yhxdu.woff2?t=1630033759944") format("woff2"), url("//at.alicdn.com/t/font_1031158_u69w8yhxdu.woff?t=1630033759944") format("woff"), url("//at.alicdn.com/t/font_1031158_u69w8yhxdu.ttf?t=1630033759944") format("truetype"); }
</style></defs><path d="M62 956.667V929.8h0.045c6.94-120.803 67.356-228.172 161.221-308.745 46.786-43.25 103.201-72.988 164.1-90.247a254.995 254.995 0 0 1-123.873-218.918c0-67.165 26.865-134.329 73.88-181.344s114.18-73.88 181.343-73.88c141.045 0 255.224 120.895 255.224 261.94 0 67.164-26.865 134.328-73.88 181.343a280.716 280.716 0 0 1-46.242 33.058 422.097 422.097 0 0 1 19.649 7.298c24.502 38.07-13.44 60.565-13.44 60.565s-73.912-26.917-114.229-26.917c-100.791-6.73-201.583 26.917-282.215 94.21-80.634 74.018-127.67 168.23-134.388 269.17h-0.03v19.333z m322.388-779.105c-33.582 40.299-53.731 87.314-53.731 134.329 0 100.746 80.597 188.06 188.06 188.06 47.014 0 100.746-20.15 134.328-53.732s53.731-80.597 53.731-134.328c0-100.747-80.597-188.06-188.06-188.06-53.73 0-100.746 20.15-134.328 53.731zM713.783 950.79c-40.316 0-73.913-33.647-73.913-74.024V735.453c0-35.691 26.25-66.124 60.19-72.705v-62.051a120.896 120.896 0 1 1 241.79 0v68.425c34.268 5.133 60.868 30.403 60.868 66.332V876.77c0 40.376-33.596 74.023-73.913 74.023z m0.453-74.024h214.539V735.453H714.237z m160.45-215.335v-60.734c0-26.866-26.865-53.732-53.73-53.732s-53.732 26.866-53.732 53.732v60.735z" p-id="2019"></path></svg>