<?xml version="1.0" standalone="no"?><!DOCTYPE svg PUBLIC "-//W3C//DTD SVG 1.1//EN" "http://www.w3.org/Graphics/SVG/1.1/DTD/svg11.dtd"><svg t="1649243050397" class="icon" viewBox="0 0 1024 1024" version="1.1" xmlns="http://www.w3.org/2000/svg" p-id="5558" xmlns:xlink="http://www.w3.org/1999/xlink" width="200" height="200"><defs><style type="text/css">@font-face { font-family: feedback-iconfont; src: url("//at.alicdn.com/t/font_1031158_u69w8yhxdu.woff2?t=1630033759944") format("woff2"), url("//at.alicdn.com/t/font_1031158_u69w8yhxdu.woff?t=1630033759944") format("woff"), url("//at.alicdn.com/t/font_1031158_u69w8yhxdu.ttf?t=1630033759944") format("truetype"); }
</style></defs><path d="M512.00073 478.72a239.36 239.36 0 1 0-239.36-239.36A239.36 239.36 0 0 0 512.00073 478.72zM813.44073 576A512 512 0 0 0 0.00073 990.72V1024h664.32a256 256 0 0 1 149.12-448z" p-id="5559" fill="#e6e6e6"></path><path d="M960.00073 768h-64v-64a64 64 0 0 0-128 0v64h-64a64 64 0 0 0 0 128h64v64a64 64 0 0 0 128 0v-64h64a64 64 0 0 0 0-128z" p-id="5560" fill="#e6e6e6"></path></svg>